:FULLY-SPECIFIED
:FORCE-ALL-JOINTS-BE-3DOF
:DEGREES
170
root 6.50952 16.0708 -25.6595 0 0 0
lfemur 0 0 0
ltibia 41.1234 -0 0
lfoot 0 0 0
ltoes 14.4568 -0 0
rfemur 0 0 0
rtibia 0 0 0
rfoot 0 0 0
rtoes 0 0 0
lowerback 1.42696 -4.9795 -1.40579
upperback 0.0479414 -6.6724 -2.43991
thorax 0 0 0
lowerneck -9.50647 -7.27286 -1.60818
upperneck 0 0 0
head 0 0 0
lclavicle 0 0 0
lhumerus -49.7081 -41.3963 115.412
lradius 52.3341 -0 0
lwrist 0 0 0
lhand 37.2223 28.5153 0.00241344
lfingers 0 0 0
lthumb 60.0532 42.223 -0.00152207
rclavicle 0 0 0
rhumerus 0 0 0
rradius 90.1196 -0 0
rwrist 0 0 0
rhand 0 0 0
rfingers 0 0 0
rthumb 0 0 0
171
root 6.45494 16.0492 -25.6369 0 0 0
lfemur 0 0 0
ltibia 39.8691 -0 0
lfoot 0 0 0
ltoes 15.8908 -0 0
rfemur 0 0 0
rtibia 0 0 0
rfoot 0 0 0
rtoes 0 0 0
lowerback 1.23243 -4.89174 -1.39212
upperback 0.0314133 -6.54709 -2.59658
thorax 0 0 0
lowerneck -9.63012 -7.07708 -1.45778
upperneck 0 0 0
head 0 0 0
lclavicle 0 0 0
lhumerus -49.8826 -41.4091 115.301
lradius 52.4066 -0 0
lwrist 0 0 0
lhand 37.3735 28.6032 0.0053144
lfingers 0 0 0
lthumb 60.1797 42.1567 -0.00335158
rclavicle 0 0 0
rhumerus 0 0 0
rradius 91.3512 -0 0
rwrist 0 0 0
rhand 0 0 0
rfingers 0 0 0
rthumb 0 0 0
172
root 6.39662 16.0268 -25.6137 0 0 0
lfemur 0 0 0
ltibia 38.3685 -0 0
lfoot 0 0 0
ltoes 17.6066 -0 0
rfemur 0 0 0
rtibia 0 0 0
rfoot 0 0 0
rtoes 0 0 0
lowerback 0.999736 -4.78667 -1.37616
upperback 0.011191 -6.39721 -2.78402
thorax 0 0 0
lowerneck -9.77731 -6.84242 -1.27847
upperneck 0 0 0
head 0 0 0
lclavicle 0 0 0
lhumerus -50.0915 -41.4248 115.168
lradius 52.4933 -0 0
lwrist 0 0 0
lhand 37.5543 28.7083 0.0084805
lfingers 0 0 0
lthumb 60.331 42.0775 -0.00534827
rclavicle 0 0 0
rhumerus 0 0 0
rradius 92.8249 -0 0
rwrist 0 0 0
rhand 0 0 0
rfingers 0 0 0
rthumb 0 0 0
173
root 6.33502 16.0038 -25.5902 0 0 0
lfemur 0 0 0
ltibia 36.6551 -0 0
lfoot 0 0 0
ltoes 19.5656 -0 0
rfemur 0 0 0
rtibia 0 0 0
rfoot 0 0 0
rtoes 0 0 0
lowerback 0.734132 -4.66663 -1.35847
upperback -0.0124944 -6.22617 -2.99804
thorax 0 0 0
lowerneck -9.94439 -6.57393 -1.0746
upperneck 0 0 0
head 0 0 0
lclavicle 0 0 0
lhumerus -50.3299 -41.4432 115.016
lradius 52.5923 -0 0
lwrist 0 0 0
lhand 37.7608 28.8284 0.0116896
lfingers 0 0 0
lthumb 60.5037 41.9869 -0.00737205
rclavicle 0 0 0
rhumerus 0 0 0
rradius 94.5074 -0 0
rwrist 0 0 0
rhand 0 0 0
rfingers 0 0 0
rthumb 0 0 0
174
root 6.27061 15.9802 -25.5665 0 0 0
lfemur 0 0 0
ltibia 34.7625 -0 0
lfoot 0 0 0
ltoes 21.7296 -0 0
rfemur 0 0 0
rtibia 0 0 0
rfoot 0 0 0
rtoes 0 0 0
lowerback 0.440847 -4.53395 -1.33958
upperback -0.0393945 -6.03734 -3.23444
thorax 0 0 0
lowerneck -10.1277 -6.27668 -0.850438
upperneck 0 0 0
head 0 0 0
lclavicle 0 0 0
lhumerus -50.5933 -41.464 114.848
lradius 52.7016 -0 0
lwrist 0 0 0
lhand 37.9889 28.9611 0.0147311
lfingers 0 0 0
lthumb 60.6945 41.8869 -0.00929014
rclavicle 0 0 0
rhumerus 0 0 0
rradius 96.3659 -0 0
rwrist 0 0 0
rhand 0 0 0
rfingers 0 0 0
rthumb 0 0 0
175
root 6.20385 15.956 -25.5427 0 0 0
lfemur 0 0 0
ltibia 32.7243 -0 0
lfoot 0 0 0
ltoes 24.0599 -0 0
rfemur 0 0 0
rtibia 0 0 0
rfoot 0 0 0
rtoes 0 0 0
lowerback 0.125111 -4.39095 -1.32001
upperback -0.0692291 -5.83412 -3.48904
thorax 0 0 0
lowerneck -10.3237 -5.95577 -0.610247
upperneck 0 0 0
head 0 0 0
lclavicle 0 0 0
lhumerus -50.8769 -41.4871 114.667
lradius 52.8194 -0 0
lwrist 0 0 0
lhand 38.2345 29.104 0.0174159
lfingers 0 0 0
lthumb 60.9 41.7792 -0.0109832
rclavicle 0 0 0
rhumerus 0 0 0
rradius 98.3674 -0 0
rwrist 0 0 0
rhand 0 0 0
rfingers 0 0 0
rthumb 0 0 0
